<?xml version="1.0" encoding="UTF-8" standalone="no"?>
<!-- Created with Inkscape (http://www.inkscape.org/) -->

<svg
   width="508.3924"
   height="470.84189"
   viewBox="0 0 508.3924 470.84189"
   version="1.1"
   id="svg1"
   xml:space="preserve"
   xmlns="http://www.w3.org/2000/svg"
   xmlns:svg="http://www.w3.org/2000/svg"><defs
     id="defs1"><rect
       x="28.991377"
       y="347.18942"
       width="464.56915"
       height="98.287842"
       id="rect1" /><rect
       x="32.526913"
       y="343.6539"
       width="451.13412"
       height="89.802559"
       id="rect5" /><rect
       x="33.23402"
       y="340.82547"
       width="453.25543"
       height="68.589355"
       id="rect4" /><style
       id="style1">.cls-1,.cls-2{fill:#fff;}.cls-2,.cls-3{font-size:182.87px;font-family:Montserrat-ExtraBold, Montserrat;font-weight:800;}.cls-4{letter-spacing:-0.01em;}.cls-5{fill:none;stroke:#000;stroke-miterlimit:10;stroke-width:62px;}</style></defs><g
     id="layer2"
     style="display:inline"
     transform="translate(-2.7234667,-21.72532)"><path
       id="path1"
       style="display:inline;fill:#000000;stroke-width:1.11647"
       d="M 256.55549,153.38177 157.98393,271.63538 120.46027,257.84748 2.7234667,396.84725 511.11585,397.20269 395.36775,259.81001 l -41.40948,9.23481 z m -7.2701,34.39014 -2.50767,23.73358 -11.68581,12.64745 c 0,0 -0.26381,0.36017 -0.34889,0.62147 -0.0851,0.2613 -0.11558,0.809 -0.11558,0.809 l 1.59184,27.85491 c 0,0 0.0239,0.25963 0.0111,0.38814 -0.0135,0.13399 -0.0915,0.39251 -0.0915,0.39251 l -15.26635,34.17208 21.34148,-10.73288 c 0,0 1.88563,-0.93195 2.72138,-1.35415 1.03104,-0.52084 1.2582,0.29656 1.2582,0.29656 3.00859,24.57003 -12.11843,32.01558 -12.787,32.51702 -0.58399,0.43799 -23.22865,18.34748 -28.94956,22.87225 0,0 -0.75963,1.30131 -1.30182,1.02923 -0.54219,-0.27206 0.0545,-1.97779 0.0545,-1.97779 l 0.44702,-15.57162 -68.52953,37.10499 23.19061,-31.13017 c 1e-5,0 8.8637,-10.82609 11.07306,-24.69522 0.68787,-4.31807 0.97328,-8.68998 1.86223,-11.31728 0.85338,-2.52217 3.98831,-6.73367 3.98831,-6.73367 z m 137.65655,89.62677 c 0,0 -1.69672,14.42191 3.1902,35.45646 l -25.17278,-28.71842 z m -262.78338,2.90673 v 13.62217 l -1.56786,10.0918 4.3045,5.18108 c 0,0 1.1906,1.49608 1.1906,3.86619 v 8.54576 l 0.31401,6.60066 -6.95827,-3.02886 -8.65041,-5.74587 -40.997352,25.03323 z" /><g
       id="g4"
       transform="matrix(0.37501768,0,0,0.37501768,101.36795,21.740321)"
       style="display:inline"><path
         class="cls-5"
         d="m 812.16,504.1 c 0,0 53.44,-60.1 133.53,-59.36 80.09,0.74 139.53,68.26 139.53,68.26"
         transform="translate(-524,-185.04)"
         id="path4" /><path
         class="cls-5"
         d="m 721.43,432.8 c 0,0 106.44,-109.48 225,-109.48 118.56,0 222.81,108.09 222.81,108.09"
         transform="translate(-524,-185.04)"
         id="path5" /><path
         class="cls-5"
         d="m 638.25,370.44 c 0,0 127.4,-154.44 300.38,-154.44 182.59,0 298.31,151.33 298.31,151.33"
         transform="translate(-524,-185.04)"
         id="path6" /></g><text
       xml:space="preserve"
       id="text1"
       style="font-size:85.3333px;text-align:start;writing-mode:lr-tb;direction:ltr;white-space:pre;shape-inside:url(#rect1);display:inline;fill:#ffffff"
       transform="matrix(1.116464,0,0,1.116464,-32.685017,16.617096)"><tspan
         x="28.992188"
         y="425.61873"
         id="tspan4"><tspan
           style="font-weight:bold;font-family:Montserrat;-inkscape-font-specification:'Montserrat Bold';fill:#000000"
           id="tspan3">ZimaMóvil</tspan></tspan></text></g></svg>
